<svg width="282" height="274" viewBox="0 0 282 274" fill="none" xmlns="http://www.w3.org/2000/svg">
<g clip-path="url(#clip0_1_2680)">
<path d="M219.882 251.309C219.882 251.309 201.979 250.334 202.109 252.935C202.24 255.537 211.728 258.798 219.882 260.749C228.036 262.701 229.989 267.596 245.923 266.937C261.857 266.279 254.565 247.423 254.565 247.423C254.565 247.423 248.21 246.439 240.056 250.187C231.902 253.936 220.981 253.936 217.392 248.561L219.882 251.309Z" fill="#ECF2F8"/>
<path d="M15.6245 251.309C15.6245 251.309 14.4771 256.871 19.0424 258.497C23.6076 260.123 32.4127 265.986 44.7984 264.685C57.184 263.384 42.357 251.325 42.357 251.325L15.6245 251.309Z" fill="#ECF2F8"/>
<path d="M219.809 251.228C219.77 251.738 219.663 252.241 219.492 252.724C219.492 252.724 208.807 253.041 204.966 252.724C201.125 252.407 203.2 248.479 204.657 247.65C204.837 247.551 205.032 247.482 205.234 247.447C206.813 247.154 209.393 248.325 210.67 247.959C212.166 247.35 213.593 246.584 214.926 245.674L219.207 246.105C219.679 247.77 219.882 249.499 219.809 251.228Z" fill="#2B2B2F"/>
<path d="M219.809 251.228C219.77 251.738 219.663 252.241 219.492 252.724C219.492 252.724 208.807 253.041 204.966 252.724C201.125 252.407 203.2 248.479 204.657 247.65C204.837 247.551 205.032 247.482 205.234 247.447C206.048 247.666 207.008 248.731 207.765 251.691C207.765 251.691 215.822 251.992 219.809 251.228Z" fill="#EBF0F2"/>
<path d="M252.132 254.789C252.132 254.789 245.386 254.895 244.45 254.789C243.685 254.7 244.312 252.61 245.134 251.228C245.296 250.941 245.484 250.668 245.695 250.415C246.032 250.082 246.443 249.835 246.895 249.694C247.346 249.552 247.825 249.521 248.291 249.602C248.291 249.602 249.341 246.349 248.291 244.251L252.645 242.243C253.293 243.595 253.838 244.995 254.272 246.431C254.377 246.791 254.458 247.158 254.517 247.528C254.826 249.602 252.132 254.789 252.132 254.789Z" fill="#2B2B2F"/>
<path d="M252.132 254.789C252.132 254.789 245.386 254.895 244.45 254.789C243.685 254.7 244.312 252.61 245.134 251.228C248.307 246.934 251.717 252.512 251.717 252.512C253.036 250.886 253.89 248.008 254.272 246.438C254.377 246.799 254.458 247.166 254.517 247.536C254.826 249.601 252.132 254.789 252.132 254.789Z" fill="#EBF0F2"/>
<path d="M222.348 208.141C222.25 209.816 222.079 211.727 221.811 213.703C220.997 219.72 219.125 245.992 219.125 245.992C218.385 246.517 217.499 246.8 216.591 246.8C215.682 246.8 214.796 246.517 214.056 245.992L212.469 209.085L212.33 205.93L222.503 202.303C222.503 202.303 222.56 204.726 222.348 208.141Z" fill="url(#paint0_linear_1_2680)"/>
<path d="M252.313 241.917C251.8 243.779 248.041 243.999 248.041 243.999L229.137 208.222C228.824 207.578 228.552 206.916 228.323 206.238C227.672 204.465 227.2 202.628 227.2 202.628L227.827 202.831L239.219 197.237L239.285 205.246V207.636C241.286 211.267 242.858 215.117 243.972 219.109C245.64 225.313 252.313 241.917 252.313 241.917Z" fill="url(#paint1_linear_1_2680)"/>
<path d="M222.503 202.303C222.503 202.303 222.56 204.743 222.348 208.141L212.469 209.085L212.33 205.93L222.503 202.303Z" fill="url(#paint2_linear_1_2680)"/>
<path d="M239.992 199.632C239.992 199.632 239.2 201.629 239.2 206.42L228.8 207.618L227.6 204.024L239.992 199.632Z" fill="url(#paint3_linear_1_2680)"/>
<path d="M207.822 163.786C207.822 163.786 205.95 165.965 205.641 166.168C205.332 166.372 200.148 166.925 199.945 167.234C199.741 167.543 203.379 168.16 203.379 168.16C203.379 168.16 200.563 170.014 200.466 170.527C200.368 171.039 201.141 176.218 202.907 176.015C204.673 175.812 208.408 168.99 208.408 168.99L210.28 166.925L207.822 163.786Z" fill="#F8CC98"/>
<path d="M215.447 164.046L209.84 167.982L206.52 164.046C206.52 164.046 214.308 155.102 214.821 154.2C215.414 152.873 215.935 151.516 216.383 150.134L215.447 164.046Z" fill="url(#paint4_linear_1_2680)"/>
<path d="M232.252 133.083C232.252 133.083 236.719 134.49 238.168 134.913C241.96 136.002 242.481 137.864 242.733 141.962C242.985 146.06 235.889 167.982 235.889 167.982L214.511 167.469C214.511 167.469 215.447 158.241 215.553 156.086C215.659 153.931 214.202 139.393 214.511 138.149C214.821 136.905 218.32 134.205 222.332 133.327L232.252 133.083Z" fill="url(#paint5_linear_1_2680)"/>
<path d="M234.482 141.596C234.482 141.596 234.172 152.899 233.448 154.866C232.724 156.834 229.819 166.25 229.819 166.25L236.28 166.746L240.503 154.842L234.482 141.596Z" fill="url(#paint6_linear_1_2680)"/>
<path d="M233.41 120.702C234.23 119.031 234.555 117.16 234.346 115.311C234.346 115.311 236.625 112.929 232.475 110.538C228.324 108.148 223.214 108.879 221.586 109.92C219.959 110.961 220.553 113.132 220.553 113.132C220.553 113.132 218.063 117.588 221.692 121.011L231.864 122.466L233.41 120.702Z" fill="url(#paint7_linear_1_2680)"/>
<path d="M223.561 132.888L220.948 133.766L224.578 154.923L233.505 133.352L231.121 132.839L223.561 132.888Z" fill="url(#paint8_linear_1_2680)"/>
<path d="M227.068 134.913L224.537 154.671L227.695 134.913H227.068Z" fill="#D0D1D8"/>
<path d="M233.188 124.131C233.083 124.205 232.963 124.253 232.837 124.272C232.71 124.29 232.581 124.279 232.46 124.239C232.339 124.198 232.229 124.13 232.139 124.039C232.049 123.948 231.982 123.838 231.942 123.716C231.43 126.302 231.129 131.799 231.129 131.799C231.129 131.799 229.159 135.051 227.499 134.913C225.839 134.775 224.488 132.53 224.488 132.53L224.675 131.644L225.009 130.018C224.512 130.218 223.963 130.25 223.447 130.107C223.18 130.043 222.921 129.95 222.674 129.831C222.48 129.734 222.292 129.626 222.112 129.506C220.826 128.619 221.591 120.423 221.982 116.919C222.088 115.959 222.161 115.349 222.161 115.349C222.633 116.162 223.561 116.439 226.474 116.236C228.002 116.077 229.546 116.181 231.039 116.545C231.036 116.577 231.036 116.61 231.039 116.642C230.626 118.469 230.744 120.377 231.381 122.139C231.381 122.139 232.317 119.553 233.456 119.651C234.595 119.748 234.018 123.611 233.188 124.131Z" fill="#F8CC98"/>
<path d="M231.015 116.561C231.011 116.593 231.011 116.626 231.015 116.659C229.008 116.686 227.006 116.86 225.025 117.179C224.012 117.397 222.956 117.312 221.99 116.935C222.096 115.976 222.169 115.366 222.169 115.366C222.641 116.179 223.569 116.455 226.482 116.252C228 116.097 229.532 116.201 231.015 116.561Z" fill="#E2B682"/>
<path d="M228.525 127.757C228.525 127.757 227.524 131.221 224.659 131.644L224.993 130.018C224.496 130.218 223.947 130.25 223.43 130.107C224.326 130.294 226.108 130.099 228.525 127.757Z" fill="#E2B682"/>
<path d="M224.684 131.701C224.146 132.063 223.716 132.563 223.438 133.148C223.121 133.961 225.929 138.124 225.929 138.124L227.068 134.872C226.466 134.546 225.941 134.093 225.53 133.546C225.118 132.999 224.83 132.37 224.684 131.701Z" fill="#A7B3C6"/>
<path d="M231.112 131.701C231.528 132.129 231.811 132.669 231.926 133.254C232.032 134.067 228.508 138.133 228.508 138.133L227.695 134.88C229.03 134.053 230.191 132.973 231.112 131.701Z" fill="#A7B3C6"/>
<path d="M262.801 159.997L269.677 192.448C269.843 193.21 269.729 194.005 269.358 194.69C268.986 195.375 268.38 195.904 267.651 196.181C267.491 196.239 267.328 196.288 267.163 196.327L212.745 207.841C212.494 207.89 212.237 207.912 211.98 207.906C211.49 207.896 211.008 207.773 210.573 207.548C210.139 207.328 209.761 207.013 209.465 206.628C209.17 206.242 208.964 205.795 208.864 205.32L201.987 172.861C201.852 172.248 201.9 171.609 202.126 171.023C202.319 170.512 202.638 170.058 203.053 169.703C203.469 169.347 203.967 169.102 204.502 168.99L258.919 157.477C259.339 157.386 259.773 157.38 260.196 157.458C260.618 157.535 261.021 157.696 261.381 157.931C261.742 158.165 262.052 158.468 262.294 158.823C262.536 159.178 262.706 159.577 262.793 159.997H262.801Z" fill="url(#paint9_linear_1_2680)"/>
<path d="M262.801 159.997L264.38 167.445C257.161 173.283 239.966 187.09 238.029 187.773C235.783 188.537 207.269 175.47 202.028 173.055V172.877C201.893 172.264 201.941 171.625 202.166 171.039C202.36 170.528 202.679 170.074 203.094 169.719C203.509 169.363 204.008 169.118 204.543 169.006L258.96 157.493C259.38 157.402 259.814 157.396 260.236 157.474C260.659 157.551 261.062 157.712 261.422 157.947C261.782 158.181 262.092 158.484 262.335 158.839C262.577 159.194 262.746 159.593 262.833 160.013L262.801 159.997Z" fill="url(#paint10_linear_1_2680)"/>
<path d="M261.198 197.587L265.771 174.007L269.677 192.44C269.843 193.202 269.73 193.997 269.358 194.682C268.986 195.367 268.38 195.896 267.651 196.172C267.491 196.231 267.328 196.28 267.163 196.319L261.198 197.587Z" fill="url(#paint11_linear_1_2680)"/>
<path d="M261.979 158.428L237.85 182.626C237.631 182.842 237.388 183.033 237.126 183.195C236.958 183.29 236.784 183.375 236.605 183.447C236.089 183.655 235.533 183.744 234.978 183.707L234.62 183.658C234.369 183.617 234.123 183.549 233.887 183.455L227.377 180.902L226.132 180.414L202.15 171.023C202.344 170.512 202.663 170.058 203.078 169.702C203.493 169.347 203.991 169.102 204.526 168.99L258.944 157.476C259.489 157.362 260.054 157.39 260.585 157.556C261.117 157.723 261.597 158.023 261.979 158.428Z" fill="url(#paint12_linear_1_2680)"/>
<path d="M202.166 170.99C202.166 170.99 204.241 171.405 205.177 171.511C206.113 171.616 205.592 172.137 204.551 172.234C203.509 172.332 204.38 175.601 202.703 176.202C202.703 176.202 200.726 172.966 202.166 170.99Z" fill="#E2B682"/>
<path d="M233.09 176.073C233.09 176.073 232.569 176.666 231.991 177.365C231.609 177.837 231.178 178.349 230.909 178.772C230.185 179.805 229.973 182.838 229.143 183.122C228.313 183.407 225.929 183.016 225.514 183.334C225.099 183.651 223.333 184.366 223.023 184.147C222.714 183.927 224.472 182.903 225.302 181.862C226.132 180.821 227.174 178.853 226.344 178.959C225.514 179.065 223.536 179.683 224.163 179.17C224.789 178.658 227.483 177.195 227.792 176.886C227.955 176.731 228.403 176.17 228.809 175.658C229.216 175.146 229.558 174.706 229.558 174.706L233.09 176.073Z" fill="#F8CC98"/>
<path d="M233.09 176.072C233.09 176.072 232.569 176.666 231.991 177.365L228.809 175.674C229.208 175.178 229.558 174.722 229.558 174.722L233.09 176.072Z" fill="#E2B682"/>
<path d="M243.856 155.956C243.539 157.932 241.781 162.176 238.664 167.469C235.548 172.763 233.481 176.901 233.481 176.901L231.039 175.812L228.598 174.722C228.598 174.722 230.632 170.535 232.333 166.949C234.311 162.802 236.28 157.102 236.28 154.712C236.28 152.321 233.481 144.345 234.726 140.198C235.022 139.138 235.685 138.218 236.597 137.601C237.51 136.985 238.611 136.712 239.706 136.831C240.178 136.838 240.642 136.959 241.057 137.185C241.473 137.41 241.827 137.732 242.09 138.124C243.148 140.092 244.19 153.988 243.856 155.956Z" fill="url(#paint13_linear_1_2680)"/>
<path d="M243.856 155.956C243.539 157.932 241.781 162.176 238.664 167.47C235.547 172.763 233.481 176.902 233.481 176.902L231.039 175.812C239.275 168.494 240.748 157.233 241.936 152.484C243.181 147.508 239.706 136.832 239.706 136.832C240.178 136.838 240.642 136.96 241.057 137.185C241.473 137.41 241.827 137.732 242.09 138.125C243.148 140.092 244.19 153.988 243.856 155.956Z" fill="url(#paint14_linear_1_2680)"/>
<path d="M116.695 149.345H99.7445V238.608H116.695V149.345Z" fill="#5597CF"/>
<path d="M105.286 149.345H99.7445V238.608H105.286V149.345Z" fill="#2A6191"/>
<path d="M130.619 225.086C130.619 225.086 126.868 197.075 122.628 196.416C118.388 195.758 116.272 202.921 117.9 225.086L125.045 236.811L130.619 225.086Z" fill="url(#paint15_linear_1_2680)"/>
<path d="M122.604 238.608C124.282 232.347 125.535 225.979 126.355 219.549C128.186 205.068 126.542 193.668 132.865 184.041C135.665 179.788 138.667 178.942 140.189 178.991C142.964 179.081 146.057 180.943 146.699 185.829C148.848 201.913 133.329 238.608 133.329 238.608H122.604Z" fill="url(#paint16_linear_1_2680)"/>
<path d="M130.619 238.609C130.619 238.609 132.881 206.084 145.129 198.701C157.376 191.318 158.646 203.125 151.81 214.5C141.052 232.388 141.54 238.609 141.54 238.609H130.619Z" fill="url(#paint17_linear_1_2680)"/>
<path d="M141.662 230.112C141.662 230.112 152.298 216.289 158.328 217.598C164.358 218.907 156.05 238.609 156.05 238.609H135.445L141.662 230.112Z" fill="url(#paint18_linear_1_2680)"/>
<path d="M158.312 238.609C158.312 238.609 162.731 226.062 167.947 226.062C173.163 226.062 170.722 238.609 170.722 238.609H158.312Z" fill="#A8CFF0"/>
<path d="M128.007 238.608C128.007 238.608 127.193 221.013 122.628 212.874C118.063 204.734 109.998 208.198 112.521 217.435C114.382 224.395 115.851 231.453 116.923 238.576L128.007 238.608Z" fill="url(#paint19_linear_1_2680)"/>
<path d="M167.784 231.112L165.213 238.608" stroke="#405CC6" stroke-miterlimit="10" stroke-linecap="round"/>
<path d="M157.189 221.663C157.189 221.663 151.029 229.973 149.621 238.609" stroke="#405CC6" stroke-miterlimit="10" stroke-linecap="round"/>
<path d="M150.199 203.303C143.562 214.266 138.624 226.169 135.551 238.608" stroke="#405CC6" stroke-miterlimit="10" stroke-linecap="round"/>
<path d="M117.9 216.289C117.9 216.289 122.465 230.111 122.628 238.608" stroke="#405CC6" stroke-miterlimit="10" stroke-linecap="round"/>
<path d="M83.111 225.086C83.111 225.086 86.8625 197.075 91.1022 196.416C95.342 195.758 97.4578 202.921 95.8303 225.086L88.6528 236.811L83.111 225.086Z" fill="url(#paint20_linear_1_2680)"/>
<path d="M91.1023 238.608C89.4238 232.347 88.1705 225.979 87.3508 219.549C85.5116 205.068 87.1636 193.668 80.8405 184.041C78.033 179.788 75.0383 178.942 73.5166 178.991C70.7416 179.081 67.6492 180.943 67.0063 185.829C64.858 201.913 80.3686 238.608 80.3686 238.608H91.1023Z" fill="url(#paint21_linear_1_2680)"/>
<path d="M64.1987 238.608C64.1987 238.608 65.338 202.124 57.1921 192.513C49.0462 182.902 42.0396 195.131 45.9457 205.051C51.8049 219.874 54.2462 238.608 54.2462 238.608H64.1987Z" fill="url(#paint22_linear_1_2680)"/>
<path d="M165.913 72.4739C157.805 72.6963 150.104 76.0704 144.447 81.8787C138.791 87.687 135.625 95.4711 135.624 103.575V149.345H63.8732V103.575C63.8732 95.3246 67.1535 87.4118 72.9925 81.5776C78.8314 75.7434 86.7508 72.4658 95.0083 72.4658H165.913V72.4739Z" fill="url(#paint23_linear_1_2680)"/>
<path d="M196.242 103.575V149.345H135.624V103.575C135.624 95.9709 138.41 88.6294 143.457 82.937C148.503 77.2446 155.46 73.595 163.016 72.6772C163.976 72.5634 164.952 72.4902 165.937 72.4658C174.05 72.682 181.758 76.0548 187.418 81.8657C193.079 87.6766 196.245 95.4663 196.242 103.575Z" fill="#5597CF"/>
<path d="M190.375 103.575V149.345H135.624V103.575C135.624 95.9708 138.41 88.6293 143.457 82.9369C148.503 77.2445 155.46 73.5949 163.016 72.6771C170.565 73.6006 177.516 77.2528 182.556 82.9449C187.596 88.637 190.377 95.9752 190.375 103.575Z" fill="#2A6191"/>
<path d="M165.913 72.4739C164.928 72.4739 163.951 72.5715 162.983 72.6854C155.429 73.605 148.474 77.2554 143.429 82.9476C138.384 88.6398 135.599 95.9802 135.599 103.583V128.505H63.8732V103.575C63.8732 95.3246 67.1535 87.4118 72.9925 81.5776C78.8314 75.7434 86.7508 72.4658 95.0083 72.4658H165.913V72.4739Z" fill="url(#paint24_linear_1_2680)"/>
<path d="M88.6528 138.759C88.6544 139.34 88.4833 139.909 88.1611 140.393C87.8389 140.877 87.3802 141.254 86.843 141.477C86.3059 141.7 85.7146 141.759 85.1439 141.646C84.5733 141.533 84.0491 141.253 83.6378 140.842C83.2264 140.431 82.9465 139.908 82.8334 139.338C82.7203 138.767 82.7792 138.177 83.0025 137.64C83.2259 137.103 83.6037 136.645 84.088 136.323C84.5724 136.001 85.1415 135.83 85.7232 135.832C86.4995 135.834 87.2434 136.143 87.7924 136.691C88.3413 137.24 88.6506 137.983 88.6528 138.759Z" fill="white"/>
<path d="M99.7364 138.759C99.738 139.34 99.5669 139.909 99.2447 140.393C98.9225 140.877 98.4638 141.254 97.9267 141.477C97.3895 141.7 96.7982 141.759 96.2276 141.646C95.6569 141.533 95.1328 141.253 94.7214 140.842C94.3101 140.431 94.0301 139.908 93.917 139.338C93.8039 138.767 93.8628 138.177 94.0861 137.64C94.3095 137.103 94.6873 136.645 95.1717 136.323C95.656 136.001 96.2251 135.83 96.8068 135.832C97.5831 135.834 98.327 136.143 98.876 136.691C99.4249 137.24 99.7343 137.983 99.7364 138.759Z" fill="white"/>
<path d="M109.518 138.759C109.52 139.34 109.349 139.909 109.026 140.393C108.704 140.877 108.245 141.254 107.708 141.477C107.171 141.7 106.58 141.759 106.009 141.646C105.439 141.533 104.914 141.253 104.503 140.842C104.092 140.431 103.812 139.908 103.699 139.338C103.586 138.767 103.644 138.177 103.868 137.64C104.091 137.103 104.469 136.645 104.953 136.323C105.438 136.001 106.007 135.83 106.588 135.832C107.365 135.834 108.109 136.143 108.658 136.691C109.207 137.24 109.516 137.983 109.518 138.759Z" fill="white"/>
<path d="M196.242 149.345V187.139C196.24 194.395 193.354 201.353 188.219 206.483C183.084 211.614 176.12 214.498 168.858 214.5H162.991C155.732 214.493 148.772 211.608 143.641 206.478C138.51 201.347 135.626 194.392 135.624 187.139V149.345H196.242Z" fill="#2A6191"/>
<path d="M196.242 149.345V187.139C196.244 190.732 195.537 194.291 194.162 197.612C192.787 200.932 190.77 203.949 188.226 206.491C185.683 209.032 182.663 211.047 179.34 212.421C176.017 213.796 172.455 214.502 168.858 214.5H165.27C158.008 214.498 151.044 211.614 145.909 206.483C140.774 201.353 137.888 194.395 137.886 187.139V149.345H196.242Z" fill="#E0E3EA"/>
<path d="M83.1109 238.609C83.1109 238.609 80.8404 206.084 68.6012 198.701C56.362 191.318 55.0844 203.125 61.9201 214.5C72.6783 232.388 72.19 238.609 72.19 238.609H83.1109Z" fill="url(#paint25_linear_1_2680)"/>
<path d="M72.0679 230.112C72.0679 230.112 61.4319 216.289 55.4018 217.598C49.3717 218.907 57.6804 238.609 57.6804 238.609H78.2852L72.0679 230.112Z" fill="url(#paint26_linear_1_2680)"/>
<path d="M55.4101 238.609C55.4101 238.609 50.9913 226.062 45.7831 226.062C40.575 226.062 43.0082 238.609 43.0082 238.609H55.4101Z" fill="url(#paint27_linear_1_2680)"/>
<path d="M85.7233 238.608C85.7233 238.608 86.537 221.013 91.1023 212.874C95.6676 204.734 103.724 208.198 101.209 217.435C99.3487 224.395 97.8789 231.453 96.8069 238.576L85.7233 238.608Z" fill="url(#paint28_linear_1_2680)"/>
<path d="M45.9457 231.112L48.5172 238.608" stroke="#405CC6" stroke-miterlimit="10" stroke-linecap="round"/>
<path d="M56.5412 221.663C56.5412 221.663 62.7015 229.973 64.1012 238.609" stroke="#405CC6" stroke-miterlimit="10" stroke-linecap="round"/>
<path d="M63.5234 203.303C70.1787 214.262 75.1338 226.166 78.2202 238.608" stroke="#405CC6" stroke-miterlimit="10" stroke-linecap="round"/>
<path d="M95.8302 216.289C95.8302 216.289 91.2649 230.111 91.1022 238.608" stroke="#405CC6" stroke-miterlimit="10" stroke-linecap="round"/>
<path d="M162.983 72.6857C155.429 73.6054 148.474 77.2557 143.429 82.948C138.384 88.6402 135.599 95.9806 135.599 103.584V128.506H100.688C104.831 125.562 108.216 119.683 108.216 108.308V100.592C108.216 93.1905 111.158 86.0925 116.396 80.8592C121.634 75.6258 128.738 72.6857 136.145 72.6857H162.983Z" fill="url(#paint29_linear_1_2680)"/>
<path d="M122.237 108.3C121.46 108.3 120.714 107.991 120.163 107.443C119.612 106.894 119.302 106.15 119.3 105.372V32.0706H125.167V105.372C125.167 106.149 124.858 106.893 124.309 107.442C123.759 107.991 123.014 108.3 122.237 108.3Z" fill="#2A6191"/>
<path d="M125.175 32.0706H103.162L125.175 50.1461V32.0706Z" fill="#FF911E"/>
<path d="M181.513 211.41C177.607 213.447 173.265 214.508 168.858 214.5H165.27C158.008 214.498 151.044 211.614 145.909 206.483C140.774 201.353 137.888 194.395 137.886 187.139V149.345H142.134L181.513 211.41Z" fill="#CED1D8"/>
<path d="M29.5481 243.991C29.5481 243.991 29.0517 246.431 29.5481 247.707C30.0445 248.984 33.4705 248.415 33.4705 248.415L33.1694 244.195L29.5481 243.991Z" fill="#F8CC98"/>
<path d="M42.357 251.098C42.3693 251.173 42.3693 251.25 42.357 251.325C42.1779 251.781 38.8089 251.708 35.4236 251.724C31.9081 251.724 28.3844 251.83 28.4902 251.325C28.46 251.186 28.4382 251.045 28.4251 250.903C28.3585 249.257 28.5479 247.611 28.9866 246.024H29.4912C29.8899 248.837 33.3078 247.732 33.259 246.024H33.8123C33.7147 247.829 35.4887 248.772 38.4346 249.041C41.3804 249.309 42.3488 250.407 42.357 251.098Z" fill="#D9E0E2"/>
<path d="M42.357 251.098C42.3693 251.173 42.3693 251.25 42.357 251.325C42.178 251.781 38.809 251.707 35.4236 251.724C31.9081 251.724 28.3845 251.829 28.4903 251.325C28.46 251.186 28.4383 251.045 28.4252 250.902C32.3313 250.87 39.5414 251.033 42.357 251.098Z" fill="#2B2B2F"/>
<path d="M16.8125 243.991C16.8125 243.991 16.308 246.431 16.8125 247.707C17.317 248.984 20.7268 248.415 20.7268 248.415L20.4257 244.195L16.8125 243.991Z" fill="#F8CC98"/>
<path d="M29.5482 251.325C29.3692 251.781 26.0001 251.708 22.6148 251.724C19.2295 251.74 15.5757 251.829 15.6815 251.325C15.6271 251.033 15.5944 250.736 15.5838 250.439C15.5879 248.939 15.7903 247.446 16.186 245.999H16.6824C17.3904 248.512 20.4014 247.91 20.4583 245.999H21.0036C20.9059 247.805 22.6881 248.748 25.6339 249.016C28.2136 249.244 29.2959 250.138 29.5401 250.813C29.6037 250.977 29.6066 251.159 29.5482 251.325Z" fill="#EBF0F2"/>
<path d="M23.7215 173.291C25.2433 187.277 24.698 192.627 26.3337 207.231C27.3835 216.622 26.4314 232.039 28.775 245.398H34.0971C34.0971 235.356 34.7156 233.714 35.4073 214.264C35.7491 204.588 35.5863 194.692 36.2211 190.261C37.1706 182.938 37.4837 175.546 37.1569 168.169L23.7215 173.291Z" fill="url(#paint30_linear_1_2680)"/>
<path d="M27.0419 190.765C24.6819 202.084 21.1094 245.398 21.1094 245.398H15.9989C14.5911 232.64 15.9501 221.468 15.1851 212.06C14.0784 198.311 11.7673 184.943 13.3786 173.299L18.9366 172.665L29.9633 170.99C29.324 177.627 28.349 184.227 27.0419 190.765Z" fill="url(#paint31_linear_1_2680)"/>
<path d="M17.6916 220.696C16.7395 227.453 16.8127 239.544 17.9927 245.398H15.9989C14.5911 232.64 15.9501 221.468 15.1851 212.06C14.0784 198.311 11.7673 184.943 13.3786 173.3L18.9366 172.665C18.4647 175.316 15.6815 191.562 16.593 202.425C17.6265 214.264 18.7983 212.857 17.6916 220.696Z" fill="url(#paint32_linear_1_2680)"/>
<path d="M33.324 159.713C32.441 160.052 31.5202 160.284 30.5816 160.404C30.7932 159.664 30.9722 158.924 31.1187 158.2C31.8368 158.093 32.5307 157.862 33.1694 157.517L33.2427 157.704L32.9416 149.573L32.8683 147.67L26.4314 135.116H17.6914L24.5841 171.299L25.3328 175.186C28.2073 175.878 31.2325 175.562 33.9018 174.292L33.324 159.713ZM26.4883 169.12C26.9787 168.457 27.4324 167.768 27.8473 167.055C31.1024 167.055 32.5672 166.161 32.5672 166.161L33.381 168.063C31.2115 168.998 28.8385 169.362 26.4883 169.12Z" fill="#EBEFF7"/>
<path d="M28.3439 139.946C28.3439 139.946 26.1304 141.353 21.0199 140.645L21.8337 142.857C24.3205 143.171 26.8463 142.826 29.1577 141.857L28.3439 139.946Z" fill="#4561D8"/>
<path d="M32.665 148.784C32.665 148.784 30.4597 150.191 25.341 149.484L26.1548 151.695C28.6416 152.009 31.1674 151.664 33.4788 150.695L32.665 148.784Z" fill="#4561D8"/>
<path d="M31.1188 158.2C30.9723 158.924 30.7933 159.664 30.5817 160.404C29.2716 160.574 27.945 160.574 26.6349 160.404L25.8211 158.192C27.5748 158.483 29.3642 158.485 31.1188 158.2Z" fill="#4561D8"/>
<path d="M33.9752 159.428C33.7635 159.534 33.5462 159.629 33.3242 159.713L33.2428 157.704L33.9752 159.428Z" fill="#242528"/>
<path d="M27.8474 167.055C27.4325 167.768 26.9788 168.457 26.4884 169.12L26.0327 169.072L25.2189 166.86C26.0894 166.987 26.9678 167.052 27.8474 167.055Z" fill="#4561D8"/>
<path d="M33.373 168.063C31.2059 168.996 28.836 169.36 26.4885 169.12C26.9789 168.457 27.4326 167.768 27.8475 167.055C31.1026 167.055 32.5674 166.161 32.5674 166.161L33.373 168.063Z" fill="#3C53A0"/>
<path d="M33.3241 159.712C32.441 160.052 31.5202 160.284 30.5817 160.404C30.7932 159.664 30.9723 158.924 31.1188 158.2C31.8368 158.093 32.5308 157.862 33.1695 157.517L33.2427 157.704L33.3241 159.712Z" fill="#3C53A0"/>
<path d="M31.1188 158.2C31.834 154.741 32.1075 151.206 31.9326 147.678L32.9091 149.581L33.2102 157.712L33.1369 157.525C32.5078 157.864 31.8252 158.092 31.1188 158.2Z" fill="#CCD2DB"/>
<path d="M33.902 174.292C31.2431 175.557 28.2307 175.876 25.3655 175.194L24.6168 171.307C25.3036 170.625 25.94 169.894 26.5211 169.12C28.8686 169.36 31.2385 168.996 33.4056 168.063L32.5918 166.161C32.5918 166.161 31.1433 167.079 27.8719 167.055C29.0693 164.966 29.9885 162.73 30.6062 160.404C31.5448 160.284 32.4656 160.052 33.3486 159.713L33.902 174.292Z" fill="#CCD2DB"/>
<path d="M37.8976 171.494C36.4897 174.812 31.9651 175.918 31.9651 175.918C31.9651 175.918 32.4371 168.071 32.5266 160.843C32.5917 156.021 32.5266 151.476 31.9651 149.703C31.1648 147.377 30.1994 145.111 29.0762 142.922C27.0662 138.791 24.8283 134.742 24.8283 134.742L25.2922 133.815L31.9651 136.848C31.9651 136.848 32.2011 138.474 32.5266 140.767C33.1125 144.873 33.9833 150.963 34.1542 152.72C34.3007 154.086 35.2528 158.875 36.1561 163.29C37.0594 167.705 37.8976 171.494 37.8976 171.494Z" fill="url(#paint33_linear_1_2680)"/>
<path d="M22.5091 110.617C18.8878 104.494 13.4518 107.365 12.459 108.91C7.12875 117.252 17.6834 127.896 11.8568 130.107C11.8568 130.107 18.2205 133.238 20.0596 125.798C21.0995 121.483 22.6285 117.301 24.6168 113.333L22.5091 110.617Z" fill="url(#paint34_linear_1_2680)"/>
<path d="M31.5581 122.367C31.5581 122.367 33.1857 119.927 32.7706 115.545C32.3556 111.162 29.4504 110.121 28.0426 111.422C28.0426 111.422 24.226 107.706 19.9048 110.723C15.9906 113.447 15.779 118.854 17.1868 122.667C18.5947 126.481 19.0585 128.197 19.1236 130.05L25.3327 123.976L31.5581 122.367Z" fill="url(#paint35_linear_1_2680)"/>
<path d="M31.9651 120.163V120.269C31.9651 121.22 31.3954 130.668 28.1485 131.237C27.4007 131.406 26.6178 131.317 25.9269 130.985C25.7033 130.877 25.504 130.725 25.3409 130.538C25.2275 131.403 25.1949 132.277 25.2433 133.148C25.2768 133.932 25.4109 134.708 25.642 135.457C25.642 135.457 22.2242 138.271 17.6996 134.352C19.003 131.098 19.881 127.69 20.3118 124.212C20.3118 124.212 18.6029 123.505 18.904 121.098C19.2295 118.48 21.9231 120.391 21.622 122.602C24.2625 121.296 26.349 119.09 27.5056 116.382C27.8276 115.635 28.0783 114.859 28.2543 114.065C28.2543 114.065 28.4496 116.642 31.9651 120.163Z" fill="#F8CC98"/>
<path d="M31.9652 120.163V120.269C30.1242 119.446 28.5712 118.093 27.5057 116.382C27.8277 115.635 28.0784 114.859 28.2543 114.065C28.2543 114.065 28.4497 116.642 31.9652 120.163Z" fill="#E2B682"/>
<path d="M25.9187 130.953C25.6952 130.845 25.4959 130.693 25.3328 130.506C25.2194 131.371 25.1867 132.245 25.2351 133.116C23.6808 131.428 22.7232 129.277 22.509 126.993C23.3678 128.529 24.5274 129.875 25.9187 130.953Z" fill="#E2B682"/>
<path d="M26.4315 176.3C24.994 176.429 23.5478 176.429 22.1103 176.3C17.9692 175.983 13.9356 174.829 10.2536 172.909C10.2536 172.909 12.1497 167.893 13.7447 163.355C14.2981 161.794 14.8026 160.29 15.1932 159.07C15.5457 158.161 15.7782 157.21 15.8849 156.241C15.8849 156.119 15.6815 155.761 15.4211 155.216L15.3723 155.11C13.4029 151.045 6.5265 137.547 7.13683 136.759C7.45421 136.352 10.457 134.945 18.0414 133.457C18.0414 133.457 26.5373 147.199 26.936 149.313C27.3348 151.427 26.4315 176.3 26.4315 176.3Z" fill="url(#paint36_linear_1_2680)"/>
<path d="M15.1852 159.046C15.5376 158.136 15.7702 157.185 15.8769 156.216C15.8769 156.094 15.6734 155.736 15.413 155.192L18.9855 162.445L15.1852 159.046Z" fill="url(#paint37_linear_1_2680)"/>
<path d="M22.1103 176.276C17.9691 175.959 13.9355 174.805 10.2535 172.885C10.2535 172.885 12.1496 167.868 13.7446 163.331C14.4526 167.006 16.4464 173.048 22.1103 176.276Z" fill="url(#paint38_linear_1_2680)"/>
<path d="M17.7891 177.707C16.7882 178.211 16.0232 176.601 15.6977 175.097C15.3722 173.593 15.3803 173.088 16.0802 173.389C15.9541 172.759 15.9541 172.109 16.0802 171.478L14.298 170.226L13.3703 169.576L16.3813 166.86L16.9835 167.486C17.2113 167.722 17.488 168.015 17.7972 168.299C18.1065 168.584 18.6598 169.153 19.0993 169.56C20.1246 170.503 20.8082 173.576 21.0035 174.877C21.1988 176.178 18.7982 177.187 17.7891 177.707Z" fill="#F8CC98"/>
<path d="M12.1578 147.914C12.1578 147.914 7.13678 154.736 7.13678 155.338C7.13678 155.94 17.7891 166.656 17.7891 166.656L13.0692 171.494C13.0692 171.494 -0.227892 156.314 -3.43886e-05 155.314C1.20435 149.988 7.23443 137.539 7.23443 137.539C7.23443 137.539 11.7509 142.076 12.1578 147.914Z" fill="url(#paint39_linear_1_2680)"/>
<path d="M32.5266 160.826C32.5917 156.005 32.5266 151.459 31.9651 149.687C31.1648 147.361 30.1994 145.094 29.0762 142.905C29.3889 141.183 29.802 139.481 30.3131 137.807C30.3131 137.807 31.2327 138.897 32.5266 140.751C33.1125 144.857 33.9832 150.947 34.1541 152.703C34.3006 154.069 35.2527 158.859 36.156 163.274C34.814 162.673 33.5861 161.845 32.5266 160.826Z" fill="url(#paint40_linear_1_2680)"/>
<path d="M34.1786 137.035L31.7372 138.263L30.5735 138.84L29.3692 133.823C29.3692 133.823 28.3601 133.213 27.6602 130.807C27.6602 130.807 27.408 131.189 27.115 131.205C26.9604 131.205 26.7976 131.124 26.6511 130.807C26.2524 129.904 26.5535 129.4 26.8546 128.367C27.1557 127.335 27.4568 126.66 28.6612 126.741C29.8656 126.822 30.5817 126.156 31.0537 126.741C32.3801 128.367 32.8847 133.376 32.8847 133.376L34.1786 137.035Z" fill="#F8CC98"/>
<path d="M31.7211 138.263L30.5574 138.84L29.353 133.823C29.353 133.823 28.3439 133.213 27.644 130.807C27.644 130.807 27.3918 131.189 27.0988 131.205C27.1636 130.967 27.2452 130.733 27.343 130.506L27.1395 128.497C27.4441 129.632 27.9544 130.701 28.645 131.652C29.3171 132.341 29.8921 133.118 30.3539 133.962C30.6469 134.498 31.3467 136.929 31.7211 138.263Z" fill="#E2B682"/>
<path d="M28.6449 136.433L35.1551 135.124C35.1551 135.124 38.9717 152.5 39.4763 154.639C39.9808 156.777 39.3786 161.956 37.8487 162.477C36.3188 162.997 33.7798 160.363 33.4218 158.558C33.0637 156.753 28.6449 136.433 28.6449 136.433Z" fill="url(#paint41_linear_1_2680)"/>
<path d="M17.7973 168.315L14.298 170.226L16.9835 167.486C17.2113 167.722 17.488 168.014 17.7973 168.315Z" fill="#E2B682"/>
<path d="M29.5482 251.326C29.3692 251.781 26.0001 251.708 22.6148 251.724C19.2295 251.74 15.5757 251.83 15.6815 251.326C15.6271 251.033 15.5944 250.737 15.5838 250.439C17.488 250.756 21.9068 251.252 29.5401 250.813C29.6037 250.978 29.6066 251.159 29.5482 251.326Z" fill="#1D1D21"/>
<path d="M184.516 146.142C184.516 146.659 184.395 147.169 184.161 147.631C183.928 148.093 183.59 148.494 183.173 148.801C182.757 149.1 182.278 149.3 181.773 149.386C181.604 149.412 181.432 149.426 181.26 149.427L143.428 149.622V109.91L181.057 109.715C181.618 109.71 182.171 109.851 182.661 110.123C183.152 110.395 183.563 110.79 183.856 111.268C184.169 111.78 184.338 112.367 184.345 112.967V114.935L184.516 146.142Z" fill="url(#paint42_linear_1_2680)"/>
<path d="M184.394 114.91H184.353C176.077 119.204 156.505 134.872 154.463 135.132C153.527 135.246 148.921 132.352 143.428 128.628V109.926L181.057 109.731C181.618 109.727 182.171 109.868 182.661 110.14C183.152 110.412 183.563 110.806 183.856 111.284C184.169 111.796 184.338 112.383 184.345 112.983L184.394 114.91Z" fill="url(#paint43_linear_1_2680)"/>
<path d="M183.856 111.267L155.325 130.091C155.072 130.26 154.799 130.396 154.512 130.497C154.329 130.561 154.141 130.61 153.95 130.644C153.409 130.739 152.853 130.714 152.323 130.571L151.981 130.457C151.744 130.365 151.517 130.248 151.305 130.107L145.389 126.286L144.266 125.554L143.452 125.001V109.91L181.081 109.714C181.638 109.714 182.186 109.857 182.672 110.129C183.158 110.401 183.565 110.793 183.856 111.267Z" fill="url(#paint44_linear_1_2680)"/>
<path d="M176.524 145.979C176.529 146.497 176.409 147.009 176.175 147.471C175.942 147.934 175.601 148.334 175.182 148.638C174.769 148.937 174.293 149.138 173.79 149.223C173.62 149.249 173.449 149.263 173.277 149.264L135.445 149.459V109.747L173.066 109.552C173.627 109.548 174.179 109.689 174.67 109.961C175.16 110.233 175.572 110.627 175.865 111.105C176.185 111.614 176.354 112.203 176.353 112.804V114.772L176.524 145.979Z" fill="url(#paint45_linear_1_2680)"/>
<path d="M176.402 114.747H176.362C168.094 119.041 148.514 134.709 146.48 134.969C145.536 135.083 140.93 132.189 135.445 128.465V109.763L173.066 109.568C173.627 109.564 174.179 109.705 174.67 109.977C175.16 110.249 175.572 110.643 175.865 111.121C176.185 111.63 176.354 112.219 176.353 112.82L176.402 114.747Z" fill="url(#paint46_linear_1_2680)"/>
<path d="M175.865 111.105L147.334 129.928C147.081 130.097 146.808 130.234 146.52 130.335C146.335 130.4 146.144 130.449 145.951 130.481C145.409 130.578 144.853 130.553 144.323 130.408L143.981 130.294C143.742 130.201 143.513 130.083 143.298 129.945L137.43 126.123L136.299 125.391L135.486 124.838V109.747L173.106 109.552C173.661 109.555 174.205 109.699 174.687 109.971C175.17 110.242 175.576 110.633 175.865 111.105Z" fill="url(#paint47_linear_1_2680)"/>
<path d="M188.259 113.512C188.259 113.512 189.008 113.39 190.236 113.048" stroke="#DCDCDC" stroke-width="1.6" stroke-miterlimit="10" stroke-linecap="round"/>
<path d="M194.712 111.422C202.59 107.877 214.243 98.77 209.124 76.7022C201.621 44.4462 202.614 18.3861 221.673 7.962C235.881 0.204938 251.782 5.80726 259.001 9.17353" stroke="#DCDCDC" stroke-width="1.6" stroke-miterlimit="10" stroke-linecap="round" stroke-dasharray="4.88 5.86"/>
<path d="M261.141 10.2304C262.288 10.8321 262.915 11.2224 262.915 11.2224" stroke="#DCDCDC" stroke-width="1.6" stroke-miterlimit="10" stroke-linecap="round"/>
<path d="M264.437 12.7514L259.66 18.6465L282.974 27.3467L272.444 4.05115L267.529 10.369L273.705 17.9472L264.437 12.7514Z" fill="url(#paint48_linear_1_2680)"/>
<path d="M12.9798 23.1672L20.141 25.6634L20.4503 0.798523L2.0752 18.5893L9.684 21.0693L14.7294 12.6943L12.9798 23.1672Z" fill="url(#paint49_linear_1_2680)"/>
<path d="M135.624 120.269C135.624 120.269 162.902 116.463 153.397 97.7455C130.546 52.7805 61.7981 102.38 34.0402 79.6131C5.0291 55.8378 10.2454 22.4435 10.2454 22.4435" stroke="#DCDCDC" stroke-width="1.6" stroke-miterlimit="10" stroke-linecap="round" stroke-dasharray="5.01 6.01"/>
<path d="M42.3571 238.608C42.3571 238.608 42.8453 247.073 60.2601 247.073C77.6749 247.073 93.3483 245.121 111.935 260.757C130.522 276.394 176.158 279.004 188.226 267.929C200.295 256.855 171.267 238.608 171.267 238.608H42.3571Z" fill="#ECF2F8"/>
</g>
<defs>
<linearGradient id="paint0_linear_1_2680" x1="217.42" y1="202.303" x2="217.42" y2="246.8" gradientUnits="userSpaceOnUse">
<stop stop-color="#2D5578"/>
<stop offset="1" stop-color="#163A58"/>
</linearGradient>
<linearGradient id="paint1_linear_1_2680" x1="239.757" y1="197.237" x2="239.757" y2="243.999" gradientUnits="userSpaceOnUse">
<stop stop-color="#2D5578"/>
<stop offset="1" stop-color="#163A58"/>
</linearGradient>
<linearGradient id="paint2_linear_1_2680" x1="217.425" y1="202.913" x2="217.425" y2="215.451" gradientUnits="userSpaceOnUse">
<stop stop-color="#11273A"/>
<stop offset="1" stop-color="#264D6E"/>
</linearGradient>
<linearGradient id="paint3_linear_1_2680" x1="234.005" y1="200.351" x2="234.005" y2="215.115" gradientUnits="userSpaceOnUse">
<stop stop-color="#11273A"/>
<stop offset="1" stop-color="#264D6E"/>
</linearGradient>
<linearGradient id="paint4_linear_1_2680" x1="219.589" y1="154.549" x2="203.786" y2="165.587" gradientUnits="userSpaceOnUse">
<stop stop-color="#E1E1E1"/>
<stop offset="1" stop-color="white"/>
</linearGradient>
<linearGradient id="paint5_linear_1_2680" x1="208.996" y1="189.586" x2="257.123" y2="184.02" gradientUnits="userSpaceOnUse">
<stop stop-color="#EA8000"/>
<stop offset="1" stop-color="#FFB459"/>
</linearGradient>
<linearGradient id="paint6_linear_1_2680" x1="235.336" y1="168.835" x2="234.71" y2="139.287" gradientUnits="userSpaceOnUse">
<stop stop-color="#FF911E"/>
<stop offset="1" stop-color="#FE931E" stop-opacity="0"/>
</linearGradient>
<linearGradient id="paint7_linear_1_2680" x1="227.345" y1="108.942" x2="227.345" y2="122.466" gradientUnits="userSpaceOnUse">
<stop stop-color="#2D5578"/>
<stop offset="1" stop-color="#163A58"/>
</linearGradient>
<linearGradient id="paint8_linear_1_2680" x1="3740.3" y1="5029.75" x2="3695.67" y2="3628.16" gradientUnits="userSpaceOnUse">
<stop stop-color="#E1E1E1"/>
<stop offset="1" stop-color="white"/>
</linearGradient>
<linearGradient id="paint9_linear_1_2680" x1="262.955" y1="163.266" x2="214.831" y2="197.73" gradientUnits="userSpaceOnUse">
<stop stop-color="#DFE1E5"/>
<stop offset="1" stop-color="#F3F3F3"/>
</linearGradient>
<linearGradient id="paint10_linear_1_2680" x1="232.585" y1="126.505" x2="233.414" y2="190.367" gradientUnits="userSpaceOnUse">
<stop stop-color="#B9BEC6"/>
<stop offset="1" stop-color="#B9BEC6" stop-opacity="0"/>
</linearGradient>
<linearGradient id="paint11_linear_1_2680" x1="3800.2" y1="8012.99" x2="3224.1" y2="7871.52" gradientUnits="userSpaceOnUse">
<stop stop-color="#B9BEC6"/>
<stop offset="1" stop-color="#B9BEC6" stop-opacity="0"/>
</linearGradient>
<linearGradient id="paint12_linear_1_2680" x1="20528.4" y1="6792.82" x2="20346.3" y2="8249.48" gradientUnits="userSpaceOnUse">
<stop stop-color="#DFE1E5"/>
<stop offset="1" stop-color="#F3F3F3"/>
</linearGradient>
<linearGradient id="paint13_linear_1_2680" x1="5664.27" y1="10962.3" x2="5350.14" y2="10948.1" gradientUnits="userSpaceOnUse">
<stop stop-color="#E1E1E1"/>
<stop offset="1" stop-color="white"/>
</linearGradient>
<linearGradient id="paint14_linear_1_2680" x1="263.525" y1="164.794" x2="218.391" y2="151.399" gradientUnits="userSpaceOnUse">
<stop stop-color="#BCCACE"/>
<stop offset="1" stop-color="#BCCACE" stop-opacity="0"/>
</linearGradient>
<linearGradient id="paint15_linear_1_2680" x1="123.985" y1="196.375" x2="123.985" y2="236.811" gradientUnits="userSpaceOnUse">
<stop stop-color="#A8CFF0"/>
<stop offset="1" stop-color="#5194CD"/>
</linearGradient>
<linearGradient id="paint16_linear_1_2680" x1="134.754" y1="178.989" x2="134.754" y2="238.608" gradientUnits="userSpaceOnUse">
<stop stop-color="#A8CFF0"/>
<stop offset="1" stop-color="#5194CD"/>
</linearGradient>
<linearGradient id="paint17_linear_1_2680" x1="143.279" y1="196.405" x2="143.279" y2="238.609" gradientUnits="userSpaceOnUse">
<stop stop-color="#A8CFF0"/>
<stop offset="1" stop-color="#5194CD"/>
</linearGradient>
<linearGradient id="paint18_linear_1_2680" x1="147.984" y1="217.51" x2="147.984" y2="238.609" gradientUnits="userSpaceOnUse">
<stop stop-color="#A8CFF0"/>
<stop offset="1" stop-color="#5194CD"/>
</linearGradient>
<linearGradient id="paint19_linear_1_2680" x1="120.025" y1="208.299" x2="120.025" y2="238.608" gradientUnits="userSpaceOnUse">
<stop stop-color="#A8CFF0"/>
<stop offset="1" stop-color="#5194CD"/>
</linearGradient>
<linearGradient id="paint20_linear_1_2680" x1="89.7449" y1="196.375" x2="89.7449" y2="236.811" gradientUnits="userSpaceOnUse">
<stop stop-color="#A8CFF0"/>
<stop offset="1" stop-color="#5194CD"/>
</linearGradient>
<linearGradient id="paint21_linear_1_2680" x1="78.9522" y1="178.989" x2="78.9522" y2="238.608" gradientUnits="userSpaceOnUse">
<stop stop-color="#A8CFF0"/>
<stop offset="1" stop-color="#5194CD"/>
</linearGradient>
<linearGradient id="paint22_linear_1_2680" x1="54.5431" y1="189.021" x2="54.5431" y2="238.608" gradientUnits="userSpaceOnUse">
<stop stop-color="#A8CFF0"/>
<stop offset="1" stop-color="#5194CD"/>
</linearGradient>
<linearGradient id="paint23_linear_1_2680" x1="87.8878" y1="162.2" x2="232.539" y2="148.326" gradientUnits="userSpaceOnUse">
<stop stop-color="#E07B00"/>
<stop offset="1" stop-color="#FFB459"/>
</linearGradient>
<linearGradient id="paint24_linear_1_2680" x1="44.1237" y1="163.196" x2="209.007" y2="120.334" gradientUnits="userSpaceOnUse">
<stop stop-color="#EA8000"/>
<stop offset="1" stop-color="#FFB459"/>
</linearGradient>
<linearGradient id="paint25_linear_1_2680" x1="70.4519" y1="196.405" x2="70.4519" y2="238.609" gradientUnits="userSpaceOnUse">
<stop stop-color="#A8CFF0"/>
<stop offset="1" stop-color="#5194CD"/>
</linearGradient>
<linearGradient id="paint26_linear_1_2680" x1="65.7462" y1="217.51" x2="65.7462" y2="238.609" gradientUnits="userSpaceOnUse">
<stop stop-color="#A8CFF0"/>
<stop offset="1" stop-color="#5194CD"/>
</linearGradient>
<linearGradient id="paint27_linear_1_2680" x1="48.9253" y1="226.062" x2="48.9253" y2="238.609" gradientUnits="userSpaceOnUse">
<stop stop-color="#A8CFF0"/>
<stop offset="1" stop-color="#5194CD"/>
</linearGradient>
<linearGradient id="paint28_linear_1_2680" x1="93.7042" y1="208.299" x2="93.7042" y2="238.608" gradientUnits="userSpaceOnUse">
<stop stop-color="#A8CFF0"/>
<stop offset="1" stop-color="#5194CD"/>
</linearGradient>
<linearGradient id="paint29_linear_1_2680" x1="18150.5" y1="11851.8" x2="8844.84" y2="10273.4" gradientUnits="userSpaceOnUse">
<stop stop-color="#FF911E"/>
<stop offset="1" stop-color="#FE931E" stop-opacity="0"/>
</linearGradient>
<linearGradient id="paint30_linear_1_2680" x1="30.5018" y1="168.169" x2="30.5018" y2="245.398" gradientUnits="userSpaceOnUse">
<stop stop-color="#2D5578"/>
<stop offset="1" stop-color="#163A58"/>
</linearGradient>
<linearGradient id="paint31_linear_1_2680" x1="21.3943" y1="170.99" x2="21.3943" y2="245.398" gradientUnits="userSpaceOnUse">
<stop stop-color="#154267"/>
<stop offset="1" stop-color="#163A58"/>
</linearGradient>
<linearGradient id="paint32_linear_1_2680" x1="380.979" y1="21253.5" x2="3106.4" y2="22387.1" gradientUnits="userSpaceOnUse">
<stop stop-color="#0E2F4A"/>
<stop offset="1" stop-color="#0F2F4B" stop-opacity="0.17"/>
</linearGradient>
<linearGradient id="paint33_linear_1_2680" x1="22.2988" y1="201.981" x2="44.8" y2="200.984" gradientUnits="userSpaceOnUse">
<stop stop-color="#EA8000"/>
<stop offset="1" stop-color="#FFB459"/>
</linearGradient>
<linearGradient id="paint34_linear_1_2680" x1="17.76" y1="106.872" x2="-20.383" y2="121.023" gradientUnits="userSpaceOnUse">
<stop stop-color="#2D5578"/>
<stop offset="1" stop-color="#163A58"/>
</linearGradient>
<linearGradient id="paint35_linear_1_2680" x1="24.6157" y1="109.542" x2="24.6157" y2="130.05" gradientUnits="userSpaceOnUse">
<stop stop-color="#2D5578"/>
<stop offset="1" stop-color="#163A58"/>
</linearGradient>
<linearGradient id="paint36_linear_1_2680" x1="3.23947" y1="202.979" x2="37.4852" y2="200.708" gradientUnits="userSpaceOnUse">
<stop stop-color="#EA8000"/>
<stop offset="1" stop-color="#FFB459"/>
</linearGradient>
<linearGradient id="paint37_linear_1_2680" x1="250.806" y1="2063.37" x2="355.589" y2="2132.47" gradientUnits="userSpaceOnUse">
<stop stop-color="#FF911E"/>
<stop offset="1" stop-color="#FE931E" stop-opacity="0"/>
</linearGradient>
<linearGradient id="paint38_linear_1_2680" x1="839.987" y1="3831.34" x2="677.389" y2="3967.26" gradientUnits="userSpaceOnUse">
<stop stop-color="#FF911E"/>
<stop offset="1" stop-color="#FE931E" stop-opacity="0"/>
</linearGradient>
<linearGradient id="paint39_linear_1_2680" x1="-3.44655" y1="192.514" x2="27.0752" y2="190.231" gradientUnits="userSpaceOnUse">
<stop stop-color="#EA8000"/>
<stop offset="1" stop-color="#FFB459"/>
</linearGradient>
<linearGradient id="paint40_linear_1_2680" x1="658.758" y1="7269.72" x2="172.491" y2="5771.31" gradientUnits="userSpaceOnUse">
<stop stop-color="#FF911E"/>
<stop offset="1" stop-color="#FE931E" stop-opacity="0"/>
</linearGradient>
<linearGradient id="paint41_linear_1_2680" x1="26.5147" y1="179.518" x2="45.4388" y2="178.433" gradientUnits="userSpaceOnUse">
<stop stop-color="#EA8000"/>
<stop offset="1" stop-color="#FFB459"/>
</linearGradient>
<linearGradient id="paint42_linear_1_2680" x1="163.972" y1="109.714" x2="163.972" y2="149.622" gradientUnits="userSpaceOnUse">
<stop stop-color="#2D5578"/>
<stop offset="1" stop-color="#5194CD"/>
</linearGradient>
<linearGradient id="paint43_linear_1_2680" x1="163.911" y1="109.731" x2="163.911" y2="135.136" gradientUnits="userSpaceOnUse">
<stop stop-color="#1E415F"/>
<stop offset="1" stop-color="#163A58"/>
</linearGradient>
<linearGradient id="paint44_linear_1_2680" x1="163.654" y1="109.714" x2="163.654" y2="130.701" gradientUnits="userSpaceOnUse">
<stop stop-color="#2D5578"/>
<stop offset="1" stop-color="#163A58"/>
</linearGradient>
<linearGradient id="paint45_linear_1_2680" x1="137.593" y1="159.436" x2="183.083" y2="153.896" gradientUnits="userSpaceOnUse">
<stop stop-color="#D67500"/>
<stop offset="1" stop-color="#E27F07"/>
</linearGradient>
<linearGradient id="paint46_linear_1_2680" x1="9574.47" y1="5311.72" x2="10166.4" y2="7371.9" gradientUnits="userSpaceOnUse">
<stop stop-color="#F9A82C"/>
<stop offset="1" stop-color="#FAA72C" stop-opacity="0"/>
</linearGradient>
<linearGradient id="paint47_linear_1_2680" x1="122.88" y1="130.896" x2="175.877" y2="130.871" gradientUnits="userSpaceOnUse">
<stop stop-color="#C66D00"/>
<stop offset="1" stop-color="#FFB459"/>
</linearGradient>
<linearGradient id="paint48_linear_1_2680" x1="271.317" y1="4.05115" x2="271.317" y2="27.3467" gradientUnits="userSpaceOnUse">
<stop stop-color="#2D5578"/>
<stop offset="1" stop-color="#5194CD"/>
</linearGradient>
<linearGradient id="paint49_linear_1_2680" x1="11.2627" y1="0.798523" x2="11.2627" y2="25.6634" gradientUnits="userSpaceOnUse">
<stop stop-color="#2D5578"/>
<stop offset="1" stop-color="#5194CD"/>
</linearGradient>
<clipPath id="clip0_1_2680">
<rect width="282" height="273.896" fill="white"/>
</clipPath>
</defs>
</svg>
